# xmcd
#
# Track frame offsets: 
#        150
#        12996
#        23075
#        39645
#        50323
#        70063
#        82761
#        99847
#        113916
#        125456
#
# Disc length: 1927 seconds
#
# Revision: 0
# Processed by: cddbd v1.5.2PL0 Copyright (c) Steve Scherf et al.
# Submitted via: ExactAudioCopyFreeDBPlugin 1.0
#
DISCID=6f07850a
DTITLE=Kokomo Kings - Artificial Natural
DYEAR=2013
DGENRE=Blues
TTITLE0=Wrong Doing Woman
TTITLE1=Hook, Line And Sinker
TTITLE2=She's So Skinny
TTITLE3=Girls I've Never Kissed
TTITLE4=Three Or Four Drinks Too Many
TTITLE5=Artificial Natural
TTITLE6=I Know Where To Go
TTITLE7=If You Were Mine
TTITLE8=Charmageddon
TTITLE9=Weak Nerves, Dangerous Curves
EXTD=
EXTT0=
EXTT1=
EXTT2=
EXTT3=
EXTT4=
EXTT5=
EXTT6=
EXTT7=
EXTT8=
EXTT9=
PLAYORDER=
